# xmcd
#
# Track frame offsets: 
#        150
#        46831
#        65629
#        97056
#        124765
#        150906
#        151801
#        168507
#        169393
#        188337
#        213267
#        234618
#        253092
#        259297
#        285120
#        299275
#        303491
#        335956
#
# Disc length: 4746 seconds
#
# Revision: 0
# Processed by: cddbd v1.5.2PL0 Copyright (c) Steve Scherf et al.
# Submitted via: ExactAudioCopy v0.95b4
#
DISCID=02128812
DTITLE=Alaska - 2001-03-24 - The Cove - York PA - Disc 2
DYEAR=2001
DGENRE=Progressive Rock
TTITLE0=Kashmir
TTITLE1=Steppin' Out
TTITLE2=More Joe, No Cow
TTITLE3=Phantasmagoria
TTITLE4=Message In A Bottle
TTITLE5=Special Request
TTITLE6=Freebird
TTITLE7=No Cash, No Freebird
TTITLE8=Cheap Sunglasses [tape flip]
TTITLE9=Freefallin'
TTITLE10=The Ocean
TTITLE11=Superstition
TTITLE12=Foreplay
TTITLE13=Long Time
TTITLE14=Rock And Roll Band
TTITLE15=Band Discussion
TTITLE16=Little Red Rooster
TTITLE17=Rocking In The Free World [cut]
EXTD=
EXTT0=
EXTT1=
EXTT2=
EXTT3=
EXTT4=
EXTT5=
EXTT6=
EXTT7=
EXTT8=
EXTT9=
EXTT10=
EXTT11=
EXTT12=
EXTT13=
EXTT14=
EXTT15=
EXTT16=
EXTT17=
PLAYORDER=
